<?xml version="1.0" standalone="no"?>
<!DOCTYPE svg PUBLIC "-//W3C//DTD SVG 20010904//EN"
 "http://www.w3.org/TR/2001/REC-SVG-20010904/DTD/svg10.dtd">
<svg version="1.0" xmlns="http://www.w3.org/2000/svg"
 width="700.000000pt" height="700.000000pt" viewBox="0 0 700.000000 700.000000"
 preserveAspectRatio="xMidYMid meet">
<metadata>
Created by potrace 1.14, written by Peter Selinger 2001-2017
</metadata>
<g transform="translate(0.000000,700.000000) scale(0.100000,-0.100000)"
fill="#000000" stroke="none">
<path d="M0 3500 l0 -3500 3500 0 3500 0 0 3500 0 3500 -3500 0 -3500 0 0
-3500z m1930 2365 l0 -435 435 0 435 0 0 -180 0 -180 -435 0 -435 0 0 -435 0
-435 -180 0 -180 0 0 435 0 435 -435 0 -435 0 0 180 0 180 435 0 435 0 0 435
0 435 180 0 180 0 0 -435z m4370 -615 l0 -180 -1050 0 -1050 0 0 180 0 180
1050 0 1050 0 0 -180z m-905 -2339 c63 -28 119 -81 153 -146 23 -43 27 -62 27
-140 0 -78 -4 -97 -27 -140 -60 -113 -154 -170 -283 -170 -66 0 -89 4 -129 25
-222 113 -245 409 -42 544 29 19 67 39 86 45 53 16 158 7 215 -18z m-4018
-543 l373 -373 373 373 c204 204 377 372 382 372 13 0 235 -222 235 -235 0 -5
-168 -178 -372 -382 l-373 -373 373 -373 c204 -204 372 -377 372 -382 0 -13
-222 -235 -235 -235 -5 0 -178 168 -382 372 l-373 373 -375 -375 -375 -375
-122 123 -123 122 375 375 375 375 -373 373 c-204 204 -372 377 -372 382 0 13
222 235 235 235 5 0 178 -168 382 -372z m4923 -618 l0 -180 -1050 0 -1050 0 0
180 0 180 1050 0 1050 0 0 -180z m-915 -592 c238 -122 235 -453 -5 -567 -78
-37 -182 -37 -260 0 -114 54 -181 160 -181 284 0 133 71 238 197 291 78 33
175 29 249 -8z"/>
<path d="M5242 2648 c-16 -16 -15 -33 3 -48 21 -18 55 -3 55 25 0 32 -35 46
-58 23z"/>
<path d="M5224 896 c-11 -29 0 -51 26 -51 21 0 25 5 25 30 0 24 -5 31 -23 33
-13 2 -24 -3 -28 -12z"/>
</g>
</svg>
